# xmcd
#
# Track frame offsets:
#	150
#	14557
#	28766
#	48399
#	63464
#	83413
#	102487
#	122916
#	141302
#	161461
#	174280
#	188279
#	202369
#	218056
#	233632
#	244651
#
# Disc length: 3435 seconds
#
# Revision: 1
# Processed by: cddbd v1.5.2PL0 Copyright (c) Steve Scherf et al.
# Submitted via: audiograbber 1.83.01
#
DISCID=d90d6910
DTITLE=Johnson, Rodney - Easy Man
DYEAR=2003
DGENRE=Country
TTITLE0=Easy Man
TTITLE1=IMay Not Be the First to Love, But I Intend to Be the Last
TTITLE2=I Want to Love You
TTITLE3=On a Barstool in Barstow
TTITLE4=Loke's Slack Key
TTITLE5=Heart to Heart
TTITLE6=Nameless Hotel
TTITLE7=RJ and Sons Blues
TTITLE8=All You Needto Do Is Ask
TTITLE9=Back in Your Arms
TTITLE10=My Darling Young Boy
TTITLE11=Time is a High
TTITLE12=Country Boy
TTITLE13=Memories
TTITLE14=God Has the Same Last Name
TTITLE15=Turn Out the Lights
EXTD=
EXTT0=
EXTT1=
EXTT2=
EXTT3=
EXTT4=
EXTT5=
EXTT6=
EXTT7=
EXTT8=
EXTT9=
EXTT10=
EXTT11=
EXTT12=
EXTT13=
EXTT14=
EXTT15=
PLAYORDER=
